<svg width="157" height="29" viewBox="0 0 157 29" fill="none" xmlns="http://www.w3.org/2000/svg">
<path d="M8.684 23.716C9.476 23.716 10.124 23.656 10.628 23.536C11.156 23.392 11.576 23.212 11.888 22.996C12.2 22.756 12.416 22.48 12.536 22.168C12.656 21.856 12.716 21.508 12.716 21.124C12.716 20.308 12.332 19.636 11.564 19.108C10.796 18.556 9.476 17.968 7.604 17.344C6.788 17.056 5.972 16.732 5.156 16.372C4.34 15.988 3.608 15.52 2.96 14.968C2.312 14.392 1.784 13.708 1.376 12.916C0.968 12.1 0.764 11.116 0.764 9.964C0.764 8.812 0.98 7.78 1.412 6.868C1.844 5.932 2.456 5.14 3.248 4.492C4.04 3.844 5 3.352 6.128 3.016C7.256 2.656 8.528 2.476 9.944 2.476C11.624 2.476 13.076 2.656 14.3 3.016C15.524 3.376 16.532 3.772 17.324 4.204L15.704 8.632C15.008 8.272 14.228 7.96 13.364 7.696C12.524 7.408 11.504 7.264 10.304 7.264C8.96 7.264 7.988 7.456 7.388 7.84C6.812 8.2 6.524 8.764 6.524 9.532C6.524 9.988 6.632 10.372 6.848 10.684C7.064 10.996 7.364 11.284 7.748 11.548C8.156 11.788 8.612 12.016 9.116 12.232C9.644 12.424 10.22 12.628 10.844 12.844C12.14 13.324 13.268 13.804 14.228 14.284C15.188 14.74 15.98 15.28 16.604 15.904C17.252 16.528 17.732 17.26 18.044 18.1C18.356 18.94 18.512 19.96 18.512 21.16C18.512 23.488 17.696 25.3 16.064 26.596C14.432 27.868 11.972 28.504 8.684 28.504C7.58 28.504 6.584 28.432 5.696 28.288C4.808 28.168 4.016 28.012 3.32 27.82C2.648 27.628 2.06 27.424 1.556 27.208C1.076 26.992 0.668 26.788 0.332 26.596L1.916 22.132C2.66 22.54 3.572 22.912 4.652 23.248C5.756 23.56 7.1 23.716 8.684 23.716ZM33.8851 13.816C33.4051 13.696 32.8411 13.576 32.1931 13.456C31.5451 13.312 30.8491 13.24 30.1051 13.24C29.7691 13.24 29.3611 13.276 28.8811 13.348C28.4251 13.396 28.0771 13.456 27.8371 13.528V28H22.4731V10.072C23.4331 9.736 24.5611 9.424 25.8571 9.136C27.1771 8.824 28.6411 8.668 30.2491 8.668C30.5371 8.668 30.8851 8.692 31.2931 8.74C31.7011 8.764 32.1091 8.812 32.5171 8.884C32.9251 8.932 33.3331 9.004 33.7411 9.1C34.1491 9.172 34.4971 9.268 34.7851 9.388L33.8851 13.816ZM43.0246 28H37.6606V9.064H43.0246V28ZM43.5286 3.592C43.5286 4.576 43.2046 5.356 42.5566 5.932C41.9326 6.484 41.1886 6.76 40.3246 6.76C39.4606 6.76 38.7046 6.484 38.0566 5.932C37.4326 5.356 37.1206 4.576 37.1206 3.592C37.1206 2.608 37.4326 1.84 38.0566 1.288C38.7046 0.711999 39.4606 0.423999 40.3246 0.423999C41.1886 0.423999 41.9326 0.711999 42.5566 1.288C43.2046 1.84 43.5286 2.608 43.5286 3.592ZM52.6524 28C51.4284 25.6 50.1804 22.792 48.9084 19.576C47.6604 16.36 46.4724 12.856 45.3444 9.064H51.0324C51.2724 10 51.5484 11.02 51.8604 12.124C52.1964 13.204 52.5324 14.308 52.8684 15.436C53.2284 16.54 53.5764 17.62 53.9124 18.676C54.2724 19.732 54.6204 20.692 54.9564 21.556C55.2684 20.692 55.6044 19.732 55.9644 18.676C56.3244 17.62 56.6724 16.54 57.0084 15.436C57.3684 14.308 57.7044 13.204 58.0164 12.124C58.3524 11.02 58.6404 10 58.8804 9.064H64.4244C63.2964 12.856 62.0964 16.36 60.8244 19.576C59.5764 22.792 58.3404 25.6 57.1164 28H52.6524ZM74.1818 24.256C74.7098 24.256 75.2138 24.244 75.6938 24.22C76.1738 24.196 76.5578 24.16 76.8458 24.112V20.044C76.6298 19.996 76.3058 19.948 75.8738 19.9C75.4418 19.852 75.0458 19.828 74.6858 19.828C74.1818 19.828 73.7018 19.864 73.2458 19.936C72.8138 19.984 72.4298 20.092 72.0938 20.26C71.7578 20.428 71.4938 20.656 71.3018 20.944C71.1098 21.232 71.0138 21.592 71.0138 22.024C71.0138 22.864 71.2898 23.452 71.8418 23.788C72.4178 24.1 73.1978 24.256 74.1818 24.256ZM73.7498 8.56C75.3338 8.56 76.6538 8.74 77.7098 9.1C78.7658 9.46 79.6058 9.976 80.2298 10.648C80.8778 11.32 81.3338 12.136 81.5978 13.096C81.8618 14.056 81.9938 15.124 81.9938 16.3V27.46C81.2258 27.628 80.1578 27.82 78.7898 28.036C77.4218 28.276 75.7658 28.396 73.8218 28.396C72.5978 28.396 71.4818 28.288 70.4738 28.072C69.4898 27.856 68.6378 27.508 67.9178 27.028C67.1978 26.524 66.6458 25.876 66.2618 25.084C65.8778 24.292 65.6858 23.32 65.6858 22.168C65.6858 21.064 65.9018 20.128 66.3338 19.36C66.7898 18.592 67.3898 17.98 68.1338 17.524C68.8778 17.068 69.7298 16.744 70.6898 16.552C71.6498 16.336 72.6458 16.228 73.6778 16.228C74.3738 16.228 74.9858 16.264 75.5138 16.336C76.0658 16.384 76.5098 16.456 76.8458 16.552V16.048C76.8458 15.136 76.5698 14.404 76.0178 13.852C75.4658 13.3 74.5058 13.024 73.1378 13.024C72.2258 13.024 71.3258 13.096 70.4378 13.24C69.5498 13.36 68.7818 13.54 68.1338 13.78L67.4498 9.46C67.7618 9.364 68.1458 9.268 68.6018 9.172C69.0818 9.052 69.5978 8.956 70.1498 8.884C70.7018 8.788 71.2778 8.716 71.8778 8.668C72.5018 8.596 73.1258 8.56 73.7498 8.56ZM86.6642 4.348L92.0282 3.484V9.064H98.4722V13.528H92.0282V20.188C92.0282 21.316 92.2202 22.216 92.6042 22.888C93.0122 23.56 93.8162 23.896 95.0162 23.896C95.5922 23.896 96.1802 23.848 96.7802 23.752C97.4042 23.632 97.9682 23.476 98.4722 23.284L99.2282 27.46C98.5802 27.724 97.8602 27.952 97.0682 28.144C96.2762 28.336 95.3042 28.432 94.1522 28.432C92.6882 28.432 91.4762 28.24 90.5162 27.856C89.5562 27.448 88.7882 26.896 88.2122 26.2C87.6362 25.48 87.2282 24.616 86.9882 23.608C86.7722 22.6 86.6642 21.484 86.6642 20.26V4.348ZM108.276 24.148C109.26 24.148 109.956 24.052 110.364 23.86C110.772 23.668 110.976 23.296 110.976 22.744C110.976 22.312 110.712 21.94 110.184 21.628C109.656 21.292 108.852 20.92 107.772 20.512C106.932 20.2 106.164 19.876 105.468 19.54C104.796 19.204 104.22 18.808 103.74 18.352C103.26 17.872 102.888 17.308 102.624 16.66C102.36 16.012 102.228 15.232 102.228 14.32C102.228 12.544 102.888 11.14 104.208 10.108C105.528 9.076 107.34 8.56 109.644 8.56C110.796 8.56 111.9 8.668 112.956 8.884C114.012 9.076 114.852 9.292 115.476 9.532L114.54 13.708C113.916 13.492 113.232 13.3 112.488 13.132C111.768 12.964 110.952 12.88 110.04 12.88C108.36 12.88 107.52 13.348 107.52 14.284C107.52 14.5 107.556 14.692 107.628 14.86C107.7 15.028 107.844 15.196 108.06 15.364C108.276 15.508 108.564 15.676 108.924 15.868C109.308 16.036 109.788 16.228 110.364 16.444C111.54 16.876 112.512 17.308 113.28 17.74C114.048 18.148 114.648 18.604 115.08 19.108C115.536 19.588 115.848 20.128 116.016 20.728C116.208 21.328 116.304 22.024 116.304 22.816C116.304 24.688 115.596 26.104 114.18 27.064C112.788 28.024 110.808 28.504 108.24 28.504C106.56 28.504 105.156 28.36 104.028 28.072C102.924 27.784 102.156 27.544 101.724 27.352L102.624 22.996C103.536 23.356 104.472 23.644 105.432 23.86C106.392 24.052 107.34 24.148 108.276 24.148ZM127.549 24.256C128.077 24.256 128.581 24.244 129.061 24.22C129.541 24.196 129.925 24.16 130.213 24.112V20.044C129.997 19.996 129.673 19.948 129.241 19.9C128.809 19.852 128.413 19.828 128.053 19.828C127.549 19.828 127.069 19.864 126.613 19.936C126.181 19.984 125.797 20.092 125.461 20.26C125.125 20.428 124.861 20.656 124.669 20.944C124.477 21.232 124.381 21.592 124.381 22.024C124.381 22.864 124.657 23.452 125.209 23.788C125.785 24.1 126.565 24.256 127.549 24.256ZM127.117 8.56C128.701 8.56 130.021 8.74 131.077 9.1C132.133 9.46 132.973 9.976 133.597 10.648C134.245 11.32 134.701 12.136 134.965 13.096C135.229 14.056 135.361 15.124 135.361 16.3V27.46C134.593 27.628 133.525 27.82 132.157 28.036C130.789 28.276 129.133 28.396 127.189 28.396C125.965 28.396 124.849 28.288 123.841 28.072C122.857 27.856 122.005 27.508 121.285 27.028C120.565 26.524 120.013 25.876 119.629 25.084C119.245 24.292 119.053 23.32 119.053 22.168C119.053 21.064 119.269 20.128 119.701 19.36C120.157 18.592 120.757 17.98 121.501 17.524C122.245 17.068 123.097 16.744 124.057 16.552C125.017 16.336 126.013 16.228 127.045 16.228C127.741 16.228 128.353 16.264 128.881 16.336C129.433 16.384 129.877 16.456 130.213 16.552V16.048C130.213 15.136 129.937 14.404 129.385 13.852C128.833 13.3 127.873 13.024 126.505 13.024C125.593 13.024 124.693 13.096 123.805 13.24C122.917 13.36 122.149 13.54 121.501 13.78L120.817 9.46C121.129 9.364 121.513 9.268 121.969 9.172C122.449 9.052 122.965 8.956 123.517 8.884C124.069 8.788 124.645 8.716 125.245 8.668C125.869 8.596 126.493 8.56 127.117 8.56ZM140.211 9.712C141.123 9.448 142.299 9.208 143.739 8.992C145.179 8.752 146.691 8.632 148.275 8.632C149.883 8.632 151.215 8.848 152.271 9.28C153.351 9.688 154.203 10.276 154.827 11.044C155.451 11.812 155.895 12.724 156.159 13.78C156.423 14.836 156.555 16.012 156.555 17.308V28H151.191V17.956C151.191 16.228 150.963 15.004 150.507 14.284C150.051 13.564 149.199 13.204 147.951 13.204C147.567 13.204 147.159 13.228 146.727 13.276C146.295 13.3 145.911 13.336 145.575 13.384V28H140.211V9.712Z" fill="#F0860C"/>
</svg>
